╨¥╨░╨╖╨▓╨░╨╜╨╕╨╡: ╨á╤ï╨▒╨░ ╨ñ╤Ç╨░╨╜╨║╨╡╨╜╤ê╤é╨╡╨╣╨╜╨░
╨₧╤Ç╨╕╨│╨╕╨╜╨░╨╗╤î╨╜╨╛╨╡ ╨╜╨░╨╖╨▓╨░╨╜╨╕╨╡: Frankenfish
╨ô╨╛╨┤ ╨▓╤ï╤à╨╛╨┤╨░: 2004
╨û╨░╨╜╤Ç: ╤â╨╢╨░╤ü╤ï, ╤ä╨░╨╜╤é╨░╤ü╤é╨╕╨║╨░, ╨▒╨╛╨╡╨▓╨╕╨║, ╤é╤Ç╨╕╨╗╨╗╨╡╤Ç, ╨║╨╛╨╝╨╡╨┤╨╕╤Å
╨á╨╡╨╢╨╕╤ü╤ü╨╡╤Ç: ╨£╨░╤Ç╨║ ╨ö╨╕╨┐╨┐╨╡
╨Æ ╤Ç╨╛╨╗╤Å╤à: ╨ó╨╛╨╝╨░╤ü ╨É╤Ç╨░╨╜╨░, ╨ó╨╛╤Ç╨╕ ╨Ü╨╕╤é╨╗╨╖, ╨Ü. ╨ö. ╨₧╨▒╨╡╤Ç╤é, ╨º╨░╨╣╨╜╨░ ╨º╨╛╤â, ╨£╤ì╤é╤é╤î╤Ä ╨á╤ì╤â╤ç, ╨ö╨╛╨╜╨╜╨░ ╨æ╨╕╤ü╨║╨╛

╨₧ ╤ä╨╕╨╗╤î╨╝╨╡: ╨Æ╨╜╨╡╨╖╨░╨┐╨╜╨╛ ╨▓ ╨▒╨╛╨╗╨╛╤é╨░╤à ╨¢╤â╨╕╨╖╨╕╨░╨╜╤ï ╨╜╨░╤ç╨╕╨╜╨░╤Ä╤é ╨│╨╕╨▒╨╜╤â╤é╤î ╨╗╤Ä╨┤╨╕. ╨í╨║╨╗╨░╨┤╤ï╨▓╨░╨╡╤é╤ü╤Å ╨▓╨┐╨╡╤ç╨░╤é╨╗╨╡╨╜╨╕╨╡, ╤ç╤é╨╛ ╨║╨░╨║╨╛╨╡ ╤ü╤â╤ë╨╡╤ü╤é╨▓╨╛, ╨┐╤Ç╨╡╨┤╨┐╨╛╨╗╨╛╨╢╨╕╤é╨╡╨╗╤î╨╜╨╛ ╨░╨╗╨╗╨╕╨│╨░╤é╨╛╤Ç ╨╗╨░╨║╨╛╨╝╨╕╤é╤ü╤Å ╨╝╨╡╤ü╤é╨╜╤ï╨╝╨╕ ╨╢╨╕╤é╨╡╨╗╤Å╨╝╨╕. ╨¥╨╛ ╤ü╨┐╨╡╤å╨╕╨░╨╗╨╕╤ü╤é ╨┐╨╛ ╨╢╨╕╨▓╨╛╤é╨╜╤ï╨╝ ╨£╤ì╤Ç╨╕ ╨╛╤é╨║╨░╨╖╤ï╨▓╨░╨╡╤é╤ü╤Å ╨▓╨╡╤Ç╨╕╤é╤î ╨▓ ╤é╨╛, ╤ç╤é╨╛ ╤ì╤é╨╛ ┬½╨┤╨╡╨╗╨╛ ╤Ç╤â╨║┬╗ ╨░╨╗╨╗╨╕╨│╨░╤é╨╛╤Ç╨░.
╨í╨╗╨╡╨┤╤ï ╤â╨║╤â╤ü╨╛╨▓ ╨▒╨╛╨╗╤î╤ê╨╡ ╨╜╨░╨┐╨╛╨╝╨╕╨╜╨░╤Ä╤é ╨╛╤é╨┐╨╡╤ç╨░╤é╨╛╨║ ╤ç╨╡╨╗╤Ä╤ü╤é╨╕ ╨░╨║╤â╨╗╤ï. ╨¥╨╛ ╨║╨░╨║ ╨░╨║╤â╨╗╤ï ╨╝╨╛╨│╨╗╨╕ ╨╛╨║╨░╨╖╨░╤é╤î╤ü╤Å ╨▓ ╨▒╨╛╨╗╨╛╤é╨░╤à? ╨ö╨╡╨╗╨╛ ╨╜╨╡ ╨╕╨╖ ╨╗╨╡╨│╨║╨╕╤à. ╨»╤ü╨╜╨╛, ╤ç╤é╨╛ ╤ì╤é╨╛ ╨║╨░╨║╨░╤Å-╤é╨╛ ╨░╨┤╤ü╨║╨░╤Å ╤Ç╤ï╨▒╨░.

╨Æ╤ï╨┐╤â╤ë╨╡╨╜╨╛: ╨í╨¿╨É
╨ƒ╤Ç╨╛╨┤╨╛╨╗╨╢╨╕╤é╨╡╨╗╤î╨╜╨╛╤ü╤é╤î: 01:20:48
╨ƒ╨╡╤Ç╨╡╨▓╨╛╨┤: ╨ƒ╤Ç╨╛╤ä╨╡╤ü╤ü╨╕╨╛╨╜╨░╨╗╤î╨╜╤ï╨╣ (╨┤╨▓╤â╤à╨│╨╛╨╗╨╛╤ü╤ï╨╣)


      Format : Matroska
      Format version : Version 2
      File size : 4.14 GiB
      Duration : 1h 20mn
      Overall bit rate : 7 347 Kbps
      Encoded date : UTC 2012-07-07 08:39:44
      Writing application : mkvmerge v5.6.0 ('Kenya Kane') built on May 27 2012 16:44:04
      Writing library : libebml v1.2.3 + libmatroska v1.3.0
   Video #1
      ID : 1
      Format : AVC
      Format/Info : Advanced Video Codec
      Format profile : Main@L4.0
      Format settings, CABAC : Yes
      Format settings, ReFrames : 3 frames
      Muxing mode : Header stripping
      Codec ID : V_MPEG4/ISO/AVC
      Duration : 1h 20mn
      Bit rate : 7 009 Kbps
      Width : 1 920 pixels
      Height : 1 080 pixels
      Display aspect ratio : 16:9
      Frame rate : 50.000 fps
      Original frame rate : 25.000 fps
      Standard : Component
      Color space : YUV
      Chroma subsampling : 4:2:0
      Bit depth : 8 bits
      Scan type : Interlaced
      Scan order : Top Field First
      Bits/(Pixel*Frame) : 0.068
      Stream size : 3.95 GiB (95%)
      Default : Yes
      Forced : No
      Color primaries : BT.709-5, BT.1361, IEC 61966-2-4, SMPTE RP177
      Transfer characteristics : BT.709-5, BT.1361
      Matrix coefficients : BT.709-5, BT.1361, IEC 61966-2-4 709, SMPTE RP177
   Audio #2
      ID : 2
      Format : MPEG Audio
      Format version : Version 1
      Format profile : Layer 2
      Muxing mode : Header stripping
      Codec ID : A_MPEG/L2
      Codec ID/Hint : MP2
      Duration : 1h 20mn
      Bit rate mode : Constant
      Bit rate : 192 Kbps
      Channel(s) : 2 channels
      Sampling rate : 48.0 KHz
      Compression mode : Lossy
      Delay relative to video : 11ms
      Stream size : 111 MiB (3%)
      Default : Yes
      Forced : No